<svg width="150" height="150" viewBox="0 0 150 150" fill="none" xmlns="http://www.w3.org/2000/svg">
<path fill-rule="evenodd" clip-rule="evenodd" d="M75 16.5C103.995 16.5 127.5 40.0051 127.5 69C127.5 90 116.1 103.5 109.5 111C102.9 118.5 88.5 132.75 84 136.5C79.5 140.25 77.7 141 75 141C72.3 141 70.5 140.25 66 136.5C61.5 132.75 47.1 118.5 40.5 111C33.9 103.5 22.5 90 22.5 69C22.5 40.0051 46.0051 16.5 75 16.5ZM118.5 66C116.843 66 115.5 67.3434 115.5 69C115.5 83.985 107.361 97.0723 95.25 104.08C93.816 104.91 93.3261 106.746 94.1558 108.18C94.9856 109.614 96.8218 110.104 98.2559 109.274C112.144 101.238 121.5 86.2134 121.5 69C121.5 67.3436 120.156 66.0004 118.5 66ZM106.5 66C104.843 66 103.5 67.3434 103.5 69C103.5 79.5438 97.7745 88.7543 89.25 93.687C87.816 94.5168 87.3261 96.3531 88.1558 97.7871C88.9856 99.2211 90.8218 99.7111 92.2559 98.8813C102.558 92.9201 109.5 81.7718 109.5 69C109.5 67.3436 108.156 66.0004 106.5 66ZM75 46.5C62.5736 46.5 52.5 56.5736 52.5 69C52.5 81.4264 62.5736 91.5 75 91.5C87.4264 91.5 97.5 81.4264 97.5 69C97.5 56.5736 87.4264 46.5 75 46.5ZM55.8442 29.8198C55.0144 28.3859 53.1782 27.8959 51.7441 28.7256C37.8556 36.7616 28.5002 51.7864 28.5 69C28.5003 70.6566 29.8433 72 31.5 72C33.1567 72 34.4997 70.6566 34.5 69C34.5001 54.0148 42.6386 40.9276 54.75 33.9199C56.1838 33.0902 56.6737 31.2538 55.8442 29.8198ZM61.8442 40.2129C61.0144 38.7789 59.1782 38.2889 57.7441 39.1187C47.4419 45.0798 40.5002 56.228 40.5 69C40.5003 70.6566 41.8433 72 43.5 72C45.1567 72 46.4997 70.6566 46.5 69C46.5001 58.456 52.2252 49.2456 60.75 44.313C62.1839 43.4832 62.6737 41.6469 61.8442 40.2129Z" fill="#081624"/>
</svg>
