<svg width="500" height="500" viewBox="0 0 500 500" fill="none" xmlns="http://www.w3.org/2000/svg">
<rect width="500" height="500" fill="black" fill-opacity="0.1"/>
<path d="M200.502 192.502C227.839 165.166 272.16 165.166 299.497 192.502C326.834 219.839 326.834 264.161 299.497 291.498L254.759 336.235C252.13 338.863 247.869 338.863 245.24 336.235L200.502 291.498C173.165 264.161 173.165 219.839 200.502 192.502ZM308.066 238.98C305.996 238.947 304.268 240.493 304.03 242.506L304.003 242.917L303.951 244.581C303.56 252.909 301.227 261.272 296.766 269C292.304 276.727 286.228 282.929 279.211 287.432L277.796 288.309C275.901 289.444 275.283 291.901 276.418 293.796C277.482 295.573 279.708 296.225 281.544 295.365L281.905 295.171C290.658 289.93 298.237 282.451 303.693 273C308.809 264.139 311.491 254.53 311.94 244.958L312.001 243.044L311.987 242.635C311.815 240.615 310.137 239.013 308.066 238.98ZM292.065 238.711C289.995 238.678 288.266 240.224 288.029 242.238L288.003 242.646L287.965 243.818C287.69 249.677 286.05 255.56 282.909 261C279.769 266.439 275.493 270.801 270.557 273.969L269.562 274.587C267.666 275.722 267.05 278.179 268.185 280.074C269.249 281.85 271.473 282.503 273.309 281.643L273.671 281.451C280.166 277.561 285.789 272.01 289.837 265C293.632 258.427 295.622 251.297 295.956 244.194L296.001 242.774L295.986 242.365C295.814 240.345 294.136 238.745 292.065 238.711ZM250 212C233.431 212 220 225.432 220 242C220 258.569 233.432 272 250 272C266.568 272 280 258.569 280 242C280 225.432 266.568 212.001 250 212ZM231.815 203.926C230.751 202.15 228.527 201.497 226.691 202.357L226.329 202.549C219.834 206.439 214.211 211.989 210.163 219C206.368 225.572 204.378 232.703 204.044 239.806L203.999 241.226L204.014 241.635C204.186 243.655 205.864 245.255 207.935 245.289C210.005 245.321 211.735 243.776 211.972 241.762L211.997 241.353L212.035 240.182C212.31 234.323 213.95 228.439 217.091 223C220.231 217.56 224.507 213.199 229.443 210.031L230.438 209.412C232.333 208.277 232.95 205.821 231.815 203.926ZM223.582 190.203C222.518 188.426 220.292 187.775 218.456 188.635L218.095 188.828C209.342 194.069 201.764 201.548 196.307 211C191.191 219.86 188.509 229.47 188.06 239.042L187.999 240.955L188.013 241.365C188.185 243.385 189.863 244.986 191.934 245.019C194.004 245.052 195.732 243.505 195.97 241.493L195.997 241.083L196.049 239.418C196.44 231.09 198.773 222.728 203.234 215C207.696 207.271 213.772 201.07 220.789 196.567L222.204 195.691C224.099 194.556 224.717 192.098 223.582 190.203Z" fill="black" fill-opacity="0.1"/>
</svg>
