<svg width="160" height="48" viewBox="0 0 160 48" fill="none" xmlns="http://www.w3.org/2000/svg">
<g filter="url(#filter0_d_3163_27723)">
<path d="M131.534 17.4668H148.333V21.667H131.539C131.549 24.9122 131.596 27.1901 131.833 28.9531C132.106 30.9769 132.545 31.6116 132.9 31.9668C133.255 32.322 133.89 33.2278 135.914 33.5C138.072 33.7902 141.002 33.7998 145.534 33.7998C146.92 33.7998 148.157 33.7977 149.267 33.7881V37.9883C148.119 37.998 146.878 38 145.534 38C136.734 38 132.334 38.0003 129.6 35.2666C126.866 32.5329 126.867 28.1325 126.867 19.333V10H131.534V17.4668ZM145.534 14.667H142.734V10H145.534V14.667ZM149.267 14.667H146.466V10H149.267V14.667Z" fill="#F7FAFC"/>
<path d="M117.534 14.667C117.534 15.675 117.532 16.605 117.529 17.4668H122.2V21.667H117.452C117.351 23.9595 117.125 25.6089 116.617 27.0615C114.975 31.753 111.286 35.4414 106.594 37.083C104.691 37.749 102.45 37.9297 98.8667 37.9795V33.7744C102.289 33.724 103.826 33.5749 105.053 33.1455C108.404 31.9729 111.04 28.8707 112.212 25.5195C112.529 24.6145 112.693 23.541 112.778 21.667H98.8667V17.4668H112.86C112.864 16.6282 112.867 15.6995 112.867 14.667V10H117.534V14.667Z" fill="#F7FAFC"/>
<path d="M81.5996 21.4717C82.3471 21.4159 83.109 21.4199 83.8799 21.4873L95.5996 22.5117V26.7305L83.4727 25.6699C82.8368 25.6143 82.2103 25.6305 81.5996 25.7119V38H76.9336V10H81.5996V21.4717Z" fill="#F7FAFC"/>
<path d="M66.667 14.667H71.333V18.8662H66.667V38H62V24.0635C58.9638 29.7708 54.0119 34.3023 48 36.7998V32.0205C53.1899 29.2316 57.2386 24.507 59.2344 18.8662H48.9336V14.667H62V10H66.667V14.667Z" fill="#F7FAFC"/>
<path fill-rule="evenodd" clip-rule="evenodd" d="M24 6.39999C31.732 6.39999 38 12.668 38 20.4C38 26 34.96 29.6 33.2 31.6C31.44 33.6 27.6 37.4 26.4 38.4C25.2 39.4 24.72 39.6 24 39.6C23.28 39.6 22.8 39.4 21.6 38.4C20.4 37.4 16.56 33.6 14.8 31.6C13.04 29.6 10 26 10 20.4C10 12.668 16.268 6.39999 24 6.39999ZM35.6 19.6C35.1582 19.6 34.8001 19.9582 34.8 20.4C34.8 24.396 32.6296 27.886 29.4 29.7547C29.0176 29.976 28.887 30.4656 29.1082 30.848C29.3295 31.2304 29.8191 31.3611 30.2016 31.1398C33.9051 28.9969 36.4 24.9902 36.4 20.4C36.3999 19.9583 36.0417 19.6001 35.6 19.6ZM32.4 19.6C31.9582 19.6 31.6001 19.9582 31.6 20.4C31.6 23.2117 30.0732 25.6678 27.8 26.9832C27.4176 27.2045 27.2869 27.6941 27.5082 28.0766C27.7295 28.459 28.2192 28.5896 28.6016 28.3684C31.3488 26.7787 33.2 23.8058 33.2 20.4C33.1999 19.9583 32.8417 19.6001 32.4 19.6ZM24 14.4C20.6863 14.4 18 17.0863 18 20.4C18 23.7137 20.6863 26.4 24 26.4C27.3137 26.4 30 23.7137 30 20.4C30 17.0863 27.3137 14.4 24 14.4ZM18.8918 9.95195C18.6705 9.56955 18.1809 9.43889 17.7984 9.66015C14.0948 11.8031 11.6 15.8097 11.6 20.4C11.6001 20.8418 11.9582 21.2 12.4 21.2C12.8418 21.2 13.1999 20.8418 13.2 20.4C13.2 16.4039 15.3703 12.914 18.6 11.0453C18.9824 10.824 19.113 10.3343 18.8918 9.95195ZM20.4918 12.7234C20.2705 12.341 19.7809 12.2104 19.3984 12.4316C16.6512 14.0213 14.8 16.9941 14.8 20.4C14.8001 20.8418 15.1582 21.2 15.6 21.2C16.0418 21.2 16.3999 20.8418 16.4 20.4C16.4 17.5883 17.9267 15.1322 20.2 13.8168C20.5824 13.5955 20.713 13.1058 20.4918 12.7234Z" fill="#F7FAFC"/>
</g>
<defs>
<filter id="filter0_d_3163_27723" x="-4" y="-2" width="168" height="56" filterUnits="userSpaceOnUse" color-interpolation-filters="sRGB">
<feFlood flood-opacity="0" result="BackgroundImageFix"/>
<feColorMatrix in="SourceAlpha" type="matrix" values="0 0 0 0 0 0 0 0 0 0 0 0 0 0 0 0 0 0 127 0" result="hardAlpha"/>
<feOffset dy="2"/>
<feGaussianBlur stdDeviation="2"/>
<feComposite in2="hardAlpha" operator="out"/>
<feColorMatrix type="matrix" values="0 0 0 0 0 0 0 0 0 0 0 0 0 0 0 0 0 0 0.1 0"/>
<feBlend mode="normal" in2="BackgroundImageFix" result="effect1_dropShadow_3163_27723"/>
<feBlend mode="normal" in="SourceGraphic" in2="effect1_dropShadow_3163_27723" result="shape"/>
</filter>
</defs>
</svg>
