<svg width="28" height="28" viewBox="0 0 28 28" fill="none" xmlns="http://www.w3.org/2000/svg">
<g clip-path="url(#clip0_2846_31215)">
<path d="M3.48142 24.5182C1.08946 22.1263 1.08946 18.2481 3.48142 15.8562L8.43117 10.9064L9.6686 12.1439L4.71886 17.0936C3.01031 18.8021 3.01031 21.5722 4.71886 23.2808C6.4274 24.9893 9.1975 24.9893 10.906 23.2808L15.8558 18.331L17.0932 19.5685L12.1435 24.5182C9.75152 26.9102 5.87338 26.9102 3.48142 24.5182Z" fill="#081624"/>
<path d="M24.5186 3.48178C26.9105 5.87374 26.9105 9.75187 24.5186 12.1438L19.5688 17.0936L18.3314 15.8561L23.2811 10.9064C24.9897 9.19785 24.9897 6.42776 23.2811 4.71921C21.5726 3.01067 18.8025 3.01067 17.094 4.71921L12.1442 9.66896L10.9068 8.43152L15.8565 3.48177C18.2485 1.08981 22.1266 1.08981 24.5186 3.48178Z" fill="#081624"/>
<path d="M18.3311 8.43153L19.5686 9.66897L9.66908 19.5685L8.43164 18.331L18.3311 8.43153Z" fill="#081624"/>
</g>
<defs>
<clipPath id="clip0_2846_31215">
<rect width="28" height="28" fill="white"/>
</clipPath>
</defs>
</svg>
